# Blender v2.79 (sub 0) OBJ File: ''
# www.blender.org
mtllib globe.mtl
o Sphere
v 0.000000 0.965926 -0.258819
v 0.000000 0.707107 -0.707107
v 0.000000 0.258819 -0.965926
v 0.000000 0.000000 -1.000000
v 0.000000 -0.258819 -0.965926
v 0.000000 -0.707107 -0.707107
v 0.000000 -0.866025 -0.500000
v 0.000000 -1.000000 -0.000000
v -0.000000 1.000000 -0.000000
v 0.129409 0.965926 -0.224144
v 0.250000 0.866025 -0.433013
v 0.353553 0.707107 -0.612372
v 0.433013 0.500000 -0.750000
v 0.482963 0.258819 -0.836516
v 0.500000 0.000000 -0.866025
v 0.482963 -0.258819 -0.836516
v 0.433013 -0.500000 -0.750000
v 0.353553 -0.707107 -0.612373
v 0.250000 -0.866025 -0.433013
v 0.129409 -0.965926 -0.224144
v 0.224144 0.965926 -0.129410
v 0.433012 0.866025 -0.250000
v 0.612372 0.707107 -0.353554
v 0.750000 0.500000 -0.433013
v 0.836516 0.258819 -0.482963
v 0.866025 0.000000 -0.500000
v 0.836516 -0.258819 -0.482963
v 0.750000 -0.500000 -0.433013
v 0.612372 -0.707107 -0.353554
v 0.433013 -0.866025 -0.250000
v 0.224144 -0.965926 -0.129410
v 0.258819 0.965926 -0.000000
v 0.500000 0.866025 -0.000000
v 0.707106 0.707107 -0.000000
v 0.866025 0.500000 -0.000000
v 0.965925 0.258819 -0.000000
v 1.000000 0.000000 -0.000000
v 0.965926 -0.258819 -0.000000
v 0.866025 -0.500000 -0.000000
v 0.707107 -0.707107 -0.000000
v 0.500000 -0.866025 -0.000000
v 0.258819 -0.965926 -0.000000
v 0.224144 0.965926 0.129409
v 0.433012 0.866025 0.249999
v 0.612372 0.707107 0.353553
v 0.750000 0.500000 0.433012
v 0.836516 0.258819 0.482962
v 0.866025 0.000000 0.499999
v 0.836516 -0.258819 0.482962
v 0.750000 -0.500000 0.433012
v 0.612372 -0.707107 0.353553
v 0.433012 -0.866025 0.250000
v 0.224144 -0.965926 0.129409
v 0.129409 0.965926 0.224143
v 0.250000 0.866025 0.433012
v 0.353553 0.707107 0.612372
v 0.433012 0.500000 0.749999
v 0.482963 0.258819 0.836516
v 0.500000 0.000000 0.866025
v 0.482963 -0.258819 0.836516
v 0.433013 -0.500000 0.749999
v 0.353553 -0.707107 0.612372
v 0.250000 -0.866025 0.433012
v 0.129409 -0.965926 0.224143
v 0.000000 0.965926 0.258818
v -0.000000 0.866025 0.499999
v -0.000000 0.707107 0.707106
v -0.000000 0.500000 0.866025
v -0.000000 0.258819 0.965925
v -0.000000 0.000000 0.999999
v -0.000000 -0.258819 0.965925
v -0.000000 -0.500000 0.866025
v -0.000000 -0.707107 0.707106
v -0.000000 -0.866025 0.499999
v 0.000000 -0.965926 0.258819
v -0.129409 0.965926 0.224143
v -0.250000 0.866025 0.433012
v -0.353553 0.707107 0.612372
v -0.433012 0.500000 0.749999
v -0.482963 0.258819 0.836516
v -0.500000 0.000000 0.866025
v -0.482963 -0.258819 0.836516
v -0.433013 -0.500000 0.749999
v -0.353553 -0.707107 0.612372
v -0.250000 -0.866025 0.433012
v -0.129409 -0.965926 0.224143
v -0.224143 0.965926 0.129409
v -0.433012 0.866025 0.249999
v -0.612372 0.707107 0.353553
v -0.750000 0.500000 0.433012
v -0.836516 0.258819 0.482962
v -0.866025 0.000000 0.499999
v -0.836516 -0.258819 0.482962
v -0.750000 -0.500000 0.433012
v -0.612372 -0.707107 0.353553
v -0.433013 -0.866025 0.249999
v -0.224144 -0.965926 0.129409
v -0.258819 0.965926 -0.000000
v -0.499999 0.866025 -0.000000
v -0.707106 0.707107 -0.000001
v -0.866025 0.500000 -0.000000
v -0.965925 0.258819 -0.000000
v -0.999999 0.000000 -0.000001
v -0.965925 -0.258819 -0.000000
v -0.866025 -0.500000 -0.000000
v -0.707107 -0.707107 -0.000000
v -0.500000 -0.866025 -0.000000
v -0.258819 -0.965926 -0.000000
v -0.224143 0.965926 -0.129410
v -0.433012 0.866025 -0.250000
v -0.612372 0.707107 -0.353554
v -0.749999 0.500000 -0.433013
v -0.836516 0.258819 -0.482963
v -0.866025 0.000000 -0.500000
v -0.836516 -0.258819 -0.482963
v -0.750000 -0.500000 -0.433013
v -0.612372 -0.707107 -0.353554
v -0.433012 -0.866025 -0.250000
v -0.224144 -0.965926 -0.129410
v -0.129409 0.965926 -0.224144
v -0.250000 0.866025 -0.433013
v -0.353553 0.707107 -0.612372
v -0.433012 0.500000 -0.750000
v -0.482963 0.258819 -0.836516
v -0.500000 0.000000 -0.866025
v -0.482963 -0.258819 -0.836516
v -0.433012 -0.500000 -0.750000
v -0.353553 -0.707107 -0.612373
v -0.250000 -0.866025 -0.433013
v -0.129409 -0.965926 -0.224144
v 0.000000 0.866025 -0.500000
v 0.000000 0.500000 -0.866025
v 0.000000 -0.500000 -0.866025
v 0.000000 -0.965926 -0.258819
vn 0.0350 -0.9908 -0.1304
vn 0.1020 0.9191 -0.3807
vn 0.2079 -0.5955 -0.7760
vn 0.2568 0.1262 -0.9582
vn 0.1610 0.7830 -0.6008
vn 0.1610 -0.7830 -0.6008
vn 0.2568 -0.1262 -0.9582
vn 0.2079 0.5955 -0.7760
vn 0.1020 -0.9191 -0.3807
vn 0.0350 0.9908 -0.1304
vn 0.2403 -0.3715 -0.8968
vn 0.2403 0.3715 -0.8968
vn 0.7015 -0.1262 -0.7015
vn 0.5681 0.5955 -0.5681
vn 0.2787 -0.9191 -0.2787
vn 0.0955 0.9908 -0.0955
vn 0.6565 -0.3715 -0.6565
vn 0.6565 0.3715 -0.6565
vn 0.0955 -0.9908 -0.0955
vn 0.2787 0.9191 -0.2787
vn 0.5681 -0.5955 -0.5681
vn 0.7015 0.1262 -0.7015
vn 0.4398 0.7830 -0.4398
vn 0.4398 -0.7830 -0.4398
vn 0.7760 -0.5955 -0.2079
vn 0.9582 0.1262 -0.2568
vn 0.6008 0.7830 -0.1610
vn 0.6008 -0.7830 -0.1610
vn 0.9582 -0.1262 -0.2568
vn 0.7760 0.5955 -0.2079
vn 0.3807 -0.9191 -0.1020
vn 0.1304 0.9908 -0.0350
vn 0.8968 -0.3715 -0.2403
vn 0.8968 0.3715 -0.2403
vn 0.1304 -0.9908 -0.0350
vn 0.3807 0.9191 -0.1020
vn 0.1304 0.9908 0.0350
vn 0.8968 -0.3715 0.2403
vn 0.8968 0.3715 0.2403
vn 0.1304 -0.9908 0.0350
vn 0.3807 0.9191 0.1020
vn 0.7760 -0.5955 0.2079
vn 0.9582 0.1262 0.2568
vn 0.6008 0.7830 0.1610
vn 0.6008 -0.7830 0.1610
vn 0.9582 -0.1261 0.2568
vn 0.7760 0.5955 0.2079
vn 0.3807 -0.9191 0.1020
vn 0.4398 -0.7830 0.4398
vn 0.7015 -0.1262 0.7015
vn 0.5681 0.5955 0.5681
vn 0.2787 -0.9191 0.2787
vn 0.0955 0.9908 0.0955
vn 0.6565 -0.3715 0.6565
vn 0.6565 0.3715 0.6565
vn 0.0955 -0.9908 0.0955
vn 0.2787 0.9191 0.2787
vn 0.5681 -0.5955 0.5681
vn 0.7015 0.1262 0.7015
vn 0.4398 0.7830 0.4398
vn 0.1020 0.9191 0.3807
vn 0.2079 -0.5955 0.7760
vn 0.2568 0.1262 0.9582
vn 0.1610 0.7830 0.6008
vn 0.1610 -0.7830 0.6008
vn 0.2568 -0.1262 0.9582
vn 0.2079 0.5955 0.7760
vn 0.1020 -0.9191 0.3807
vn 0.0350 0.9908 0.1304
vn 0.2403 -0.3715 0.8968
vn 0.2403 0.3715 0.8968
vn 0.0350 -0.9908 0.1304
vn -0.1020 -0.9191 0.3807
vn -0.0350 0.9908 0.1304
vn -0.2403 -0.3715 0.8968
vn -0.2403 0.3715 0.8968
vn -0.0350 -0.9908 0.1304
vn -0.1020 0.9191 0.3807
vn -0.2079 -0.5955 0.7760
vn -0.2568 0.1262 0.9582
vn -0.1610 0.7830 0.6008
vn -0.1610 -0.7830 0.6008
vn -0.2568 -0.1262 0.9582
vn -0.2079 0.5955 0.7760
vn -0.4398 0.7830 0.4398
vn -0.4398 -0.7830 0.4398
vn -0.7015 -0.1262 0.7015
vn -0.5681 0.5955 0.5681
vn -0.2787 -0.9191 0.2787
vn -0.0955 0.9908 0.0955
vn -0.6565 -0.3715 0.6565
vn -0.6565 0.3715 0.6565
vn -0.0955 -0.9908 0.0955
vn -0.2787 0.9191 0.2787
vn -0.5681 -0.5955 0.5681
vn -0.7015 0.1262 0.7015
vn -0.1304 -0.9908 0.0350
vn -0.3807 0.9191 0.1020
vn -0.7760 -0.5955 0.2079
vn -0.9582 0.1262 0.2568
vn -0.6008 0.7830 0.1610
vn -0.6008 -0.7830 0.1610
vn -0.9582 -0.1262 0.2568
vn -0.7760 0.5955 0.2079
vn -0.3807 -0.9191 0.1020
vn -0.1304 0.9908 0.0350
vn -0.8968 -0.3715 0.2403
vn -0.8968 0.3715 0.2403
vn -0.7760 0.5955 -0.2079
vn -0.3807 -0.9191 -0.1020
vn -0.1304 0.9908 -0.0350
vn -0.8968 -0.3715 -0.2403
vn -0.8968 0.3715 -0.2403
vn -0.1304 -0.9908 -0.0350
vn -0.3807 0.9191 -0.1020
vn -0.7760 -0.5955 -0.2079
vn -0.9582 0.1262 -0.2568
vn -0.6008 0.7830 -0.1610
vn -0.6008 -0.7830 -0.1610
vn -0.9582 -0.1262 -0.2568
vn -0.4398 0.7830 -0.4398
vn -0.4398 -0.7830 -0.4398
vn -0.7015 -0.1262 -0.7015
vn -0.5681 0.5955 -0.5681
vn -0.2787 -0.9191 -0.2787
vn -0.0955 0.9908 -0.0955
vn -0.6565 -0.3715 -0.6565
vn -0.6565 0.3715 -0.6565
vn -0.0955 -0.9908 -0.0955
vn -0.2787 0.9191 -0.2787
vn -0.5681 -0.5955 -0.5681
vn -0.7015 0.1262 -0.7015
vn -0.2403 0.3715 -0.8968
vn -0.0350 -0.9908 -0.1304
vn -0.1020 0.9191 -0.3807
vn -0.2079 -0.5955 -0.7760
vn -0.2568 0.1262 -0.9582
vn -0.1610 0.7830 -0.6008
vn -0.1610 -0.7830 -0.6008
vn -0.2568 -0.1262 -0.9582
vn -0.2079 0.5955 -0.7760
vn -0.1020 -0.9191 -0.3807
vn -0.0350 0.9908 -0.1304
vn -0.2403 -0.3715 -0.8968
usemtl None
s off
f 8//1 134//1 20//1
f 131//2 1//2 10//2 11//2
f 6//3 133//3 17//3 18//3
f 4//4 3//4 14//4 15//4
f 2//5 131//5 11//5 12//5
f 7//6 6//6 18//6 19//6
f 5//7 4//7 15//7 16//7
f 132//8 2//8 12//8 13//8
f 134//9 7//9 19//9 20//9
f 1//10 9//10 10//10
f 133//11 5//11 16//11 17//11
f 3//12 132//12 13//12 14//12
f 16//13 15//13 26//13 27//13
f 13//14 12//14 23//14 24//14
f 20//15 19//15 30//15 31//15
f 10//16 9//16 21//16
f 17//17 16//17 27//17 28//17
f 14//18 13//18 24//18 25//18
f 8//19 20//19 31//19
f 11//20 10//20 21//20 22//20
f 18//21 17//21 28//21 29//21
f 15//22 14//22 25//22 26//22
f 12//23 11//23 22//23 23//23
f 19//24 18//24 29//24 30//24
f 29//25 28//25 39//25 40//25
f 26//26 25//26 36//26 37//26
f 23//27 22//27 33//27 34//27
f 30//28 29//28 40//28 41//28
f 27//29 26//29 37//29 38//29
f 24//30 23//30 34//30 35//30
f 31//31 30//31 41//31 42//31
f 21//32 9//32 32//32
f 28//33 27//33 38//33 39//33
f 25//34 24//34 35//34 36//34
f 8//35 31//35 42//35
f 22//36 21//36 32//36 33//36
f 32//37 9//37 43//37
f 39//38 38//38 49//38 50//38
f 36//39 35//39 46//39 47//39
f 8//40 42//40 53//40
f 33//41 32//41 43//41 44//41
f 40//42 39//42 50//42 51//42
f 37//43 36//43 47//43 48//43
f 34//44 33//44 44//44 45//44
f 41//45 40//45 51//45 52//45
f 38//46 37//46 48//46 49//46
f 35//47 34//47 45//47 46//47
f 42//48 41//48 52//48 53//48
f 52//49 51//49 62//49 63//49
f 49//50 48//50 59//50 60//50
f 46//51 45//51 56//51 57//51
f 53//52 52//52 63//52 64//52
f 43//53 9//53 54//53
f 50//54 49//54 60//54 61//54
f 47//55 46//55 57//55 58//55
f 8//56 53//56 64//56
f 44//57 43//57 54//57 55//57
f 51//58 50//58 61//58 62//58
f 48//59 47//59 58//59 59//59
f 45//60 44//60 55//60 56//60
f 55//61 54//61 65//61 66//61
f 62//62 61//62 72//62 73//62
f 59//63 58//63 69//63 70//63
f 56//64 55//64 66//64 67//64
f 63//65 62//65 73//65 74//65
f 60//66 59//66 70//66 71//66
f 57//67 56//67 67//67 68//67
f 64//68 63//68 74//68 75//68
f 54//69 9//69 65//69
f 61//70 60//70 71//70 72//70
f 58//71 57//71 68//71 69//71
f 8//72 64//72 75//72
f 75//73 74//73 85//73 86//73
f 65//74 9//74 76//74
f 72//75 71//75 82//75 83//75
f 69//76 68//76 79//76 80//76
f 8//77 75//77 86//77
f 66//78 65//78 76//78 77//78
f 73//79 72//79 83//79 84//79
f 70//80 69//80 80//80 81//80
f 67//81 66//81 77//81 78//81
f 74//82 73//82 84//82 85//82
f 71//83 70//83 81//83 82//83
f 68//84 67//84 78//84 79//84
f 78//85 77//85 88//85 89//85
f 85//86 84//86 95//86 96//86
f 82//87 81//87 92//87 93//87
f 79//88 78//88 89//88 90//88
f 86//89 85//89 96//89 97//89
f 76//90 9//90 87//90
f 83//91 82//91 93//91 94//91
f 80//92 79//92 90//92 91//92
f 8//93 86//93 97//93
f 77//94 76//94 87//94 88//94
f 84//95 83//95 94//95 95//95
f 81//96 80//96 91//96 92//96
f 8//97 97//97 108//97
f 88//98 87//98 98//98 99//98
f 95//99 94//99 105//99 106//99
f 92//100 91//100 102//100 103//100
f 89//101 88//101 99//101 100//101
f 96//102 95//102 106//102 107//102
f 93//103 92//103 103//103 104//103
f 90//104 89//104 100//104 101//104
f 97//105 96//105 107//105 108//105
f 87//106 9//106 98//106
f 94//107 93//107 104//107 105//107
f 91//108 90//108 101//108 102//108
f 101//109 100//109 111//109 112//109
f 108//110 107//110 118//110 119//110
f 98//111 9//111 109//111
f 105//112 104//112 115//112 116//112
f 102//113 101//113 112//113 113//113
f 8//114 108//114 119//114
f 99//115 98//115 109//115 110//115
f 106//116 105//116 116//116 117//116
f 103//117 102//117 113//117 114//117
f 100//118 99//118 110//118 111//118
f 107//119 106//119 117//119 118//119
f 104//120 103//120 114//120 115//120
f 111//121 110//121 121//121 122//121
f 118//122 117//122 128//122 129//122
f 115//123 114//123 125//123 126//123
f 112//124 111//124 122//124 123//124
f 119//125 118//125 129//125 130//125
f 109//126 9//126 120//126
f 116//127 115//127 126//127 127//127
f 113//128 112//128 123//128 124//128
f 8//129 119//129 130//129
f 110//130 109//130 120//130 121//130
f 117//131 116//131 127//131 128//131
f 114//132 113//132 124//132 125//132
f 124//133 123//133 132//133 3//133
f 8//134 130//134 134//134
f 121//135 120//135 1//135 131//135
f 128//136 127//136 133//136 6//136
f 125//137 124//137 3//137 4//137
f 122//138 121//138 131//138 2//138
f 129//139 128//139 6//139 7//139
f 126//140 125//140 4//140 5//140
f 123//141 122//141 2//141 132//141
f 130//142 129//142 7//142 134//142
f 120//143 9//143 1//143
f 127//144 126//144 5//144 133//144
